<?xml version="1.0" encoding="utf-8"?>
<!-- Generator: Adobe Illustrator 16.0.0, SVG Export Plug-In . SVG Version: 6.00 Build 0)  -->
<!DOCTYPE svg PUBLIC "-//W3C//DTD SVG 1.1//EN" "http://www.w3.org/Graphics/SVG/1.1/DTD/svg11.dtd">
<svg version="1.1" id="Layer_1" xmlns="http://www.w3.org/2000/svg" xmlns:xlink="http://www.w3.org/1999/xlink" x="0px" y="0px"
	 width="512px" height="512px" viewBox="0 0 512 512" enable-background="new 0 0 512 512" xml:space="preserve">
<g transform="translate(0.000000,512.000000) scale(0.100000,-0.100000)">
	<path fill="#535EAB" d="M-22.5,2560V-27.5H2560h2582.5V2560v2587.5H2560H-22.5V2560z M3050.263,3772.89
		c234.043-59.634,432.783-216.299,552.832-435.63c76.66-141.504,106.924-260.771,106.924-429.565
		c0-185.977-42.373-327.48-146.27-485.156c-124.082-186.982-322.813-324.453-532.646-367.91
		c-120.049-24.258-178.555,7.08-226.973,124.316c-55.488,133.418-64.57,119.267,95.83,156.67
		c217.9,51.553,332.9,120.283,419.658,251.675c70.615,106.128,91.807,177.891,91.807,311.309
		c-1.016,131.396-29.258,236.514-92.813,334.556c-173.516,268.857-548.789,348.706-815.107,174.858
		c-118.022-76.816-206.802-198.105-240.088-328.491c-19.165-72.773-21.187-217.31-5.044-285.029
		c14.121-56.602,95.835-258.75,311.714-765.136c86.748-205.176,164.434-391.152,171.494-413.389
		c7.061-21.221,10.088-61.65,8.066-88.945c-4.023-40.43-12.109-56.602-44.375-89.951
		c-43.389-45.488-127.119-110.176-142.246-110.176c-5.049,0-46.401,84.902-91.797,190.02
		c-45.396,104.102-119.043,272.9-164.438,375.996c-180.571,412.383-301.626,700.444-320.791,762.099
		c-47.417,152.622-46.406,355.781,1.011,511.436C2125.21,3619.257,2597.324,3888.115,3050.263,3772.89z M1734.814,3746.611
		c173.506-58.623,214.868-294.126,73.638-415.415c-99.868-85.913-242.109-77.827-334.922,19.204
		c-44.385,46.494-63.55,98.042-63.55,171.826C1409.98,3692.031,1571.386,3803.212,1734.814,3746.611z"/>
</g>
</svg>
